<svg id="Layer_1" data-name="Layer 1" xmlns="http://www.w3.org/2000/svg" viewBox="0 0 560.92 624.95"><defs><style>.cls-1{fill-rule:evenodd;}</style></defs><title>hexagon-shape</title><path class="cls-1" d="M124,89.31,33,143.1S5.33,157,4.46,188.1c-.85,30.4-1,257.48-1,257.48s.95,31,27,46.58,135.75,79.78,135.75,79.78L257.43,622s28.59,16,56.08,1.22C340.39,608.79,538,495.49,538,495.49S563.6,479,564.11,448.73s.16-155.5.16-155.5-.05-.16-.16-.46V189.55s-.4-32.6-27-48.9C511,124.72,313.32,11.07,313.32,11.07s-27.45-14.67-54.09,0S124,89.31,124,89.31" transform="translate(-3.47 -4.55)"/></svg>